<?xml version="1.0" standalone="no"?><!DOCTYPE svg PUBLIC "-//W3C//DTD SVG 1.1//EN" "http://www.w3.org/Graphics/SVG/1.1/DTD/svg11.dtd"><svg t="1624873819990" class="icon" viewBox="0 0 1024 1024" version="1.1" xmlns="http://www.w3.org/2000/svg" p-id="7715" xmlns:xlink="http://www.w3.org/1999/xlink" width="48" height="48"><defs><style type="text/css"></style></defs><path d="M716.8 546.14016H546.12992v-68.27008h102.4c18.76992 0 34.14016-15.36 34.14016-34.12992V307.2a34.24256 34.24256 0 0 0-34.14016-34.12992h-102.4V204.8h-68.25984v68.27008h-102.4A34.24256 34.24256 0 0 0 341.32992 307.2v136.52992a34.24256 34.24256 0 0 0 34.14016 34.12992h102.4v68.27008H307.2a34.23232 34.23232 0 0 0-34.12992 34.11968V716.8c0 18.75968 15.36 34.14016 34.12992 34.14016h170.67008V819.2h68.25984v-68.25984H716.8A34.24256 34.24256 0 0 0 750.92992 716.8V580.25984c0-18.75968-15.36-34.11968-34.12992-34.11968z m-34.12992 136.51968H341.32992V614.4h341.34016v68.25984z" p-id="7716"></path></svg>