<?xml version="1.0" standalone="no"?><!DOCTYPE svg PUBLIC "-//W3C//DTD SVG 1.1//EN" "http://www.w3.org/Graphics/SVG/1.1/DTD/svg11.dtd"><svg t="1624873832140" class="icon" viewBox="0 0 1024 1024" version="1.1" xmlns="http://www.w3.org/2000/svg" p-id="8017" xmlns:xlink="http://www.w3.org/1999/xlink" width="48" height="48"><defs><style type="text/css"></style></defs><path d="M204.8 204.8h68.27008v614.4H204.8zM785.07008 546.14016h-409.6a34.24256 34.24256 0 0 0-34.14016 34.11968V716.8a34.2528 34.2528 0 0 0 34.14016 34.14016h409.6A34.2528 34.2528 0 0 0 819.2 716.8V580.25984a34.23232 34.23232 0 0 0-34.12992-34.11968z m-34.14016 136.51968H409.6V614.4h341.32992v68.25984zM682.67008 443.72992a34.24256 34.24256 0 0 1-34.14016 34.12992H375.47008a34.24256 34.24256 0 0 1-34.14016-34.12992V307.2a34.24256 34.24256 0 0 1 34.14016-34.12992h273.05984A34.24256 34.24256 0 0 1 682.67008 307.2v136.52992z" p-id="8018"></path></svg>