<?xml version="1.0" standalone="no"?><!DOCTYPE svg PUBLIC "-//W3C//DTD SVG 1.1//EN" "http://www.w3.org/Graphics/SVG/1.1/DTD/svg11.dtd"><svg t="1624873867632" class="icon" viewBox="0 0 1024 1024" version="1.1" xmlns="http://www.w3.org/2000/svg" p-id="9231" xmlns:xlink="http://www.w3.org/1999/xlink" width="48" height="48"><defs><style type="text/css"></style></defs><path d="M546.12992 307.2v170.67008h-68.25984v-102.4a34.24256 34.24256 0 0 0-34.14016-34.12992H307.2a34.23232 34.23232 0 0 0-34.12992 34.12992v102.4H204.8v68.27008h68.27008v102.4c0 18.75968 15.36 34.12992 34.12992 34.12992h136.52992a34.24256 34.24256 0 0 0 34.14016-34.12992v-102.4h68.25984V716.8a34.24256 34.24256 0 0 0 34.14016 34.12992H716.8c18.76992 0 34.12992-15.36 34.12992-34.12992V546.14016H819.2v-68.27008h-68.27008V307.2c0-18.75968-15.36-34.12992-34.12992-34.12992H580.27008A34.24256 34.24256 0 0 0 546.12992 307.2z m136.54016 34.14016v341.32992H614.4V341.34016h68.27008z" p-id="9232"></path></svg>