<?xml version="1.0" standalone="no"?><!DOCTYPE svg PUBLIC "-//W3C//DTD SVG 1.1//EN" "http://www.w3.org/Graphics/SVG/1.1/DTD/svg11.dtd"><svg t="1624873859643" class="icon" viewBox="0 0 1024 1024" version="1.1" xmlns="http://www.w3.org/2000/svg" p-id="8929" xmlns:xlink="http://www.w3.org/1999/xlink" width="48" height="48"><defs><style type="text/css"></style></defs><path d="M204.8 204.8h614.4v68.27008H204.8zM546.12992 375.47008v409.6A34.24256 34.24256 0 0 0 580.27008 819.2H716.8a34.24256 34.24256 0 0 0 34.12992-34.12992v-409.6c0-18.76992-15.36-34.14016-34.12992-34.14016H580.27008a34.2528 34.2528 0 0 0-34.14016 34.14016zM682.67008 409.6v341.32992H614.4V409.6h68.27008zM443.72992 341.32992a34.2528 34.2528 0 0 1 34.14016 34.14016v273.05984a34.2528 34.2528 0 0 1-34.14016 34.14016H307.2a34.24256 34.24256 0 0 1-34.12992-34.14016V375.47008c0-18.76992 15.36-34.14016 34.12992-34.14016h136.52992z" p-id="8930"></path></svg>